<svg width="72" height="72" viewBox="0 0 72 72" fill="none" xmlns="http://www.w3.org/2000/svg">
<path d="M36.0696 13.561C39.8147 13.561 42.8496 10.524 42.8496 6.7822C42.8496 3.03469 39.8149 0 36.0696 0C32.322 0 29.2884 3.03469 29.2884 6.7822C29.2885 10.524 32.3221 13.561 36.0696 13.561Z" fill="#5A67D8" fill-opacity="0.85"/>
<path d="M41.9438 16.7734H35.9995H30.0551C26.7698 16.7734 23.1956 20.3478 23.1956 23.6343V46.4237C23.1956 48.0669 24.5263 49.3987 26.1695 49.3987C26.9771 49.3987 26.1695 49.3987 28.2446 49.3987L29.3763 68.8339C29.3763 70.5825 30.7935 71.9998 32.5422 71.9998C33.2796 71.9998 34.6407 71.9998 35.9995 71.9998C37.3594 71.9998 38.7206 71.9998 39.4579 71.9998C41.2064 71.9998 42.6237 70.5826 42.6237 68.8339L43.7544 49.3987C45.8306 49.3987 45.0218 49.3987 45.8306 49.3987C47.4725 49.3987 48.8045 48.0669 48.8045 46.4237V23.6343C48.8045 20.3478 45.2301 16.7734 41.9438 16.7734Z" fill="#5A67D8" fill-opacity="0.85"/>
<path d="M14.6448 20.9649C17.9161 20.9649 20.5659 18.3142 20.5659 15.0441C20.5659 11.7729 17.9161 9.12207 14.6448 9.12207C11.3725 9.12207 8.72397 11.773 8.72397 15.0441C8.72397 18.314 11.3725 20.9649 14.6448 20.9649Z" fill="#5A67D8" fill-opacity="0.85"/>
<path d="M57.4757 20.9649C60.748 20.9649 63.3966 18.3142 63.3966 15.0441C63.3966 11.7729 60.748 9.12207 57.4757 9.12207C54.2057 9.12207 51.5548 11.773 51.5548 15.0441C51.5548 18.314 54.2057 20.9649 57.4757 20.9649Z" fill="#5A67D8" fill-opacity="0.85"/>
<path d="M19.3018 23.7686H14.5841H9.3922C6.52374 23.7686 3.40228 26.8923 3.40228 29.7609V49.663C3.40228 51.099 4.56441 52.2611 5.99934 52.2611C6.705 52.2611 5.99935 52.2611 7.81116 52.2611L8.79891 69.2351C8.79891 70.7612 10.0371 71.9996 11.5644 71.9996C12.2081 71.9996 13.3959 71.9996 14.5841 71.9996C15.7708 71.9996 16.9599 71.9996 17.6036 71.9996C19.1309 71.9996 20.3691 70.7613 20.3691 69.2351L21.3557 52.2611V51.298C20.0929 50.0526 19.3018 48.3334 19.3018 46.4234V23.7686Z" fill="#5A67D8" fill-opacity="0.85"/>
<path d="M62.6078 23.7686H57.4148H52.6982V46.4234C52.6982 48.3334 51.9071 50.0526 50.643 51.298V52.2611L51.6298 69.2351C51.6298 70.7612 52.8692 71.9996 54.3964 71.9996C55.0402 71.9996 56.2281 71.9996 57.4148 71.9996C58.6039 71.9996 59.7919 71.9996 60.4356 71.9996C61.963 71.9996 63.2001 70.7613 63.2001 69.2351L64.189 52.2611C66.0007 52.2611 65.295 52.2611 66.0007 52.2611C67.4356 52.2611 68.5977 51.0989 68.5977 49.663V29.7609C68.5977 26.8923 65.4764 23.7686 62.6078 23.7686Z" fill="#5A67D8" fill-opacity="0.85"/>
</svg>
